<svg xmlns="http://www.w3.org/2000/svg" width="1841" height="950" fill="none" viewBox="0 0 1841 950"><rect width="1841" height="950" fill="#F7F7F7"/><path fill="#A6A6FF" d="M1815 0L0 568V0H1815Z"/><ellipse cx="473.789" cy="514.037" fill="#7BDEFB" opacity=".241" rx="148.5" ry="132" transform="rotate(53 473.789 514.037)"/><circle cx="895.5" cy="65.5" r="46" stroke="#FF3E6C" stroke-width="23" opacity=".427"/><circle cx="695.5" cy="32.5" r="4.5" fill="#41485A" opacity=".111"/><circle cx="714.5" cy="32.5" r="4.5" fill="#41485A" opacity=".111"/><circle cx="732.5" cy="32.5" r="4.5" fill="#41485A" opacity=".111"/><circle cx="751.5" cy="32.5" r="4.5" fill="#41485A" opacity=".111"/><circle cx="695.5" cy="51.5" r="4.5" fill="#41485A" opacity=".111"/><circle cx="714.5" cy="51.5" r="4.5" fill="#41485A" opacity=".111"/><circle cx="732.5" cy="51.5" r="4.5" fill="#41485A" opacity=".111"/><circle cx="751.5" cy="51.5" r="4.5" fill="#41485A" opacity=".111"/><circle cx="695.5" cy="69.5" r="4.5" fill="#41485A" opacity=".111"/><circle cx="714.5" cy="69.5" r="4.5" fill="#41485A" opacity=".111"/><circle cx="732.5" cy="69.5" r="4.5" fill="#41485A" opacity=".111"/><circle cx="751.5" cy="69.5" r="4.5" fill="#41485A" opacity=".111"/><circle cx="695.5" cy="88.5" r="4.5" fill="#41485A" opacity=".111"/><circle cx="714.5" cy="88.5" r="4.5" fill="#41485A" opacity=".111"/><circle cx="732.5" cy="88.5" r="4.5" fill="#41485A" opacity=".111"/><circle cx="751.5" cy="88.5" r="4.5" fill="#41485A" opacity=".111"/><circle cx="770.5" cy="32.5" r="4.5" fill="#41485A" opacity=".111"/><circle cx="770.5" cy="51.5" r="4.5" fill="#41485A" opacity=".111"/><circle cx="770.5" cy="69.5" r="4.5" fill="#41485A" opacity=".111"/><circle cx="770.5" cy="88.5" r="4.5" fill="#41485A" opacity=".111"/></svg>