<svg width="1535" height="1721" viewBox="0 0 1535 1721" fill="none" xmlns="http://www.w3.org/2000/svg">
<rect x="102" width="1433" height="1721" fill="white"/>
<g opacity="0.16848">
<circle cx="781.5" cy="767.5" r="4.5" fill="#388AF7"/>
<circle cx="800.5" cy="767.5" r="4.5" fill="#388AF7"/>
<circle cx="818.5" cy="767.5" r="4.5" fill="#388AF7"/>
<circle cx="837.5" cy="767.5" r="4.5" fill="#388AF7"/>
<circle cx="781.5" cy="786.5" r="4.5" fill="#388AF7"/>
<circle cx="800.5" cy="786.5" r="4.5" fill="#388AF7"/>
<circle cx="818.5" cy="786.5" r="4.5" fill="#388AF7"/>
<circle cx="837.5" cy="786.5" r="4.5" fill="#388AF7"/>
<circle cx="781.5" cy="804.5" r="4.5" fill="#388AF7"/>
<circle cx="800.5" cy="804.5" r="4.5" fill="#388AF7"/>
<circle cx="818.5" cy="804.5" r="4.5" fill="#388AF7"/>
<circle cx="837.5" cy="804.5" r="4.5" fill="#388AF7"/>
<circle cx="781.5" cy="823.5" r="4.5" fill="#388AF7"/>
<circle cx="800.5" cy="823.5" r="4.5" fill="#388AF7"/>
<circle cx="818.5" cy="823.5" r="4.5" fill="#388AF7"/>
<circle cx="837.5" cy="823.5" r="4.5" fill="#388AF7"/>
<circle cx="856.5" cy="767.5" r="4.5" fill="#388AF7"/>
<circle cx="856.5" cy="786.5" r="4.5" fill="#388AF7"/>
<circle cx="856.5" cy="804.5" r="4.5" fill="#388AF7"/>
<circle cx="856.5" cy="823.5" r="4.5" fill="#388AF7"/>
</g>
<g opacity="0.16848">
<ellipse cx="209.911" cy="1414.24" rx="12.9107" ry="17.2385" fill="#7538F7"/>
<ellipse cx="264.423" cy="1414.24" rx="12.9107" ry="17.2385" fill="#7538F7"/>
<ellipse cx="316.065" cy="1414.24" rx="12.9107" ry="17.2385" fill="#7538F7"/>
<ellipse cx="370.577" cy="1414.24" rx="12.9107" ry="17.2385" fill="#7538F7"/>
<ellipse cx="209.911" cy="1487.02" rx="12.9107" ry="17.2385" fill="#7538F7"/>
<ellipse cx="264.423" cy="1487.02" rx="12.9107" ry="17.2385" fill="#7538F7"/>
<ellipse cx="316.065" cy="1487.02" rx="12.9107" ry="17.2385" fill="#7538F7"/>
<ellipse cx="370.577" cy="1487.02" rx="12.9107" ry="17.2385" fill="#7538F7"/>
<ellipse cx="209.911" cy="1555.98" rx="12.9107" ry="17.2385" fill="#7538F7"/>
<ellipse cx="264.423" cy="1555.98" rx="12.9107" ry="17.2385" fill="#7538F7"/>
<ellipse cx="316.065" cy="1555.98" rx="12.9107" ry="17.2385" fill="#7538F7"/>
<ellipse cx="370.577" cy="1555.98" rx="12.9107" ry="17.2385" fill="#7538F7"/>
<ellipse cx="209.911" cy="1628.76" rx="12.9107" ry="17.2385" fill="#7538F7"/>
<ellipse cx="264.423" cy="1628.76" rx="12.9107" ry="17.2385" fill="#7538F7"/>
<ellipse cx="316.065" cy="1628.76" rx="12.9107" ry="17.2385" fill="#7538F7"/>
<ellipse cx="370.577" cy="1628.76" rx="12.9107" ry="17.2385" fill="#7538F7"/>
<ellipse cx="425.089" cy="1414.24" rx="12.9107" ry="17.2385" fill="#7538F7"/>
<ellipse cx="425.089" cy="1487.02" rx="12.9107" ry="17.2385" fill="#7538F7"/>
<ellipse cx="425.089" cy="1555.98" rx="12.9107" ry="17.2385" fill="#7538F7"/>
<ellipse cx="425.089" cy="1628.76" rx="12.9107" ry="17.2385" fill="#7538F7"/>
</g>
<g opacity="0.16848">
<circle cx="916.5" cy="436.5" r="4.5" fill="#388AF7"/>
<circle cx="935.5" cy="436.5" r="4.5" fill="#388AF7"/>
<circle cx="953.5" cy="436.5" r="4.5" fill="#388AF7"/>
<circle cx="972.5" cy="436.5" r="4.5" fill="#388AF7"/>
<circle cx="916.5" cy="455.5" r="4.5" fill="#388AF7"/>
<circle cx="935.5" cy="455.5" r="4.5" fill="#388AF7"/>
<circle cx="953.5" cy="455.5" r="4.5" fill="#388AF7"/>
<circle cx="972.5" cy="455.5" r="4.5" fill="#388AF7"/>
<circle cx="916.5" cy="473.5" r="4.5" fill="#388AF7"/>
<circle cx="935.5" cy="473.5" r="4.5" fill="#388AF7"/>
<circle cx="953.5" cy="473.5" r="4.5" fill="#388AF7"/>
<circle cx="972.5" cy="473.5" r="4.5" fill="#388AF7"/>
<circle cx="916.5" cy="492.5" r="4.5" fill="#388AF7"/>
<circle cx="935.5" cy="492.5" r="4.5" fill="#388AF7"/>
<circle cx="953.5" cy="492.5" r="4.5" fill="#388AF7"/>
<circle cx="972.5" cy="492.5" r="4.5" fill="#388AF7"/>
<circle cx="991.5" cy="436.5" r="4.5" fill="#388AF7"/>
<circle cx="991.5" cy="455.5" r="4.5" fill="#388AF7"/>
<circle cx="991.5" cy="473.5" r="4.5" fill="#388AF7"/>
<circle cx="991.5" cy="492.5" r="4.5" fill="#388AF7"/>
</g>
<rect opacity="0.556292" x="113.151" y="773.151" width="158" height="158" transform="rotate(30 113.151 773.151)" stroke="#5F5FFF" stroke-width="50"/>
<circle opacity="0.427107" cx="283.5" cy="714.5" r="46" stroke="#FF3E6C" stroke-width="23"/>
<circle opacity="0.427107" cx="1255" cy="1487" r="199" stroke="#8FACFF" stroke-width="50"/>
<g opacity="0.16848">
<ellipse cx="1255.3" cy="119.254" rx="11.3036" ry="12.2538" fill="url(#paint0_linear)"/>
<ellipse cx="1303.03" cy="119.254" rx="11.3036" ry="12.2538" fill="url(#paint1_linear)"/>
<ellipse cx="1348.24" cy="119.254" rx="11.3036" ry="12.2538" fill="url(#paint2_linear)"/>
<ellipse cx="1395.97" cy="119.254" rx="11.3036" ry="12.2538" fill="url(#paint3_linear)"/>
<ellipse cx="1255.3" cy="170.992" rx="11.3036" ry="12.2538" fill="url(#paint4_linear)"/>
<ellipse cx="1303.03" cy="170.992" rx="11.3036" ry="12.2538" fill="url(#paint5_linear)"/>
<ellipse cx="1348.24" cy="170.992" rx="11.3036" ry="12.2538" fill="url(#paint6_linear)"/>
<ellipse cx="1395.97" cy="170.992" rx="11.3036" ry="12.2538" fill="url(#paint7_linear)"/>
<ellipse cx="1255.3" cy="220.008" rx="11.3036" ry="12.2538" fill="url(#paint8_linear)"/>
<ellipse cx="1303.03" cy="220.008" rx="11.3036" ry="12.2538" fill="url(#paint9_linear)"/>
<ellipse cx="1348.24" cy="220.008" rx="11.3036" ry="12.2538" fill="url(#paint10_linear)"/>
<ellipse cx="1395.97" cy="220.008" rx="11.3036" ry="12.2538" fill="url(#paint11_linear)"/>
<ellipse cx="1255.3" cy="271.746" rx="11.3036" ry="12.2538" fill="url(#paint12_linear)"/>
<ellipse cx="1303.03" cy="271.746" rx="11.3036" ry="12.2538" fill="url(#paint13_linear)"/>
<ellipse cx="1348.24" cy="271.746" rx="11.3036" ry="12.2538" fill="url(#paint14_linear)"/>
<ellipse cx="1395.97" cy="271.746" rx="11.3036" ry="12.2538" fill="url(#paint15_linear)"/>
<ellipse cx="1443.7" cy="119.254" rx="11.3036" ry="12.2538" fill="url(#paint16_linear)"/>
<ellipse cx="1443.7" cy="170.992" rx="11.3036" ry="12.2538" fill="url(#paint17_linear)"/>
<ellipse cx="1443.7" cy="220.008" rx="11.3036" ry="12.2538" fill="url(#paint18_linear)"/>
<ellipse cx="1443.7" cy="271.746" rx="11.3036" ry="12.2538" fill="url(#paint19_linear)"/>
</g>
<g opacity="0.16848">
<circle cx="444.5" cy="990.5" r="4.5" fill="#38F7EC"/>
<circle cx="463.5" cy="990.5" r="4.5" fill="#38F7EC"/>
<circle cx="481.5" cy="990.5" r="4.5" fill="#38F7EC"/>
<circle cx="500.5" cy="990.5" r="4.5" fill="#38F7EC"/>
<circle cx="444.5" cy="1009.5" r="4.5" fill="#38F7EC"/>
<circle cx="463.5" cy="1009.5" r="4.5" fill="#38F7EC"/>
<circle cx="481.5" cy="1009.5" r="4.5" fill="#38F7EC"/>
<circle cx="500.5" cy="1009.5" r="4.5" fill="#38F7EC"/>
<circle cx="444.5" cy="1027.5" r="4.5" fill="#38F7EC"/>
<circle cx="463.5" cy="1027.5" r="4.5" fill="#38F7EC"/>
<circle cx="481.5" cy="1027.5" r="4.5" fill="#38F7EC"/>
<circle cx="500.5" cy="1027.5" r="4.5" fill="#38F7EC"/>
<circle cx="444.5" cy="1046.5" r="4.5" fill="#38F7EC"/>
<circle cx="463.5" cy="1046.5" r="4.5" fill="#38F7EC"/>
<circle cx="481.5" cy="1046.5" r="4.5" fill="#38F7EC"/>
<circle cx="500.5" cy="1046.5" r="4.5" fill="#38F7EC"/>
<circle cx="519.5" cy="990.5" r="4.5" fill="#38F7EC"/>
<circle cx="519.5" cy="1009.5" r="4.5" fill="#38F7EC"/>
<circle cx="519.5" cy="1027.5" r="4.5" fill="#38F7EC"/>
<circle cx="519.5" cy="1046.5" r="4.5" fill="#38F7EC"/>
</g>
<g opacity="0.16848">
<circle cx="299.5" cy="276.5" r="4.5" fill="#388AF7"/>
<circle cx="318.5" cy="276.5" r="4.5" fill="#388AF7"/>
<circle cx="336.5" cy="276.5" r="4.5" fill="#388AF7"/>
<circle cx="355.5" cy="276.5" r="4.5" fill="#388AF7"/>
<circle cx="299.5" cy="295.5" r="4.5" fill="#388AF7"/>
<circle cx="318.5" cy="295.5" r="4.5" fill="#388AF7"/>
<circle cx="336.5" cy="295.5" r="4.5" fill="#388AF7"/>
<circle cx="355.5" cy="295.5" r="4.5" fill="#388AF7"/>
<circle cx="299.5" cy="313.5" r="4.5" fill="#388AF7"/>
<circle cx="318.5" cy="313.5" r="4.5" fill="#388AF7"/>
<circle cx="336.5" cy="313.5" r="4.5" fill="#388AF7"/>
<circle cx="355.5" cy="313.5" r="4.5" fill="#388AF7"/>
<circle cx="299.5" cy="332.5" r="4.5" fill="#388AF7"/>
<circle cx="318.5" cy="332.5" r="4.5" fill="#388AF7"/>
<circle cx="336.5" cy="332.5" r="4.5" fill="#388AF7"/>
<circle cx="355.5" cy="332.5" r="4.5" fill="#388AF7"/>
<circle cx="374.5" cy="276.5" r="4.5" fill="#388AF7"/>
<circle cx="374.5" cy="295.5" r="4.5" fill="#388AF7"/>
<circle cx="374.5" cy="313.5" r="4.5" fill="#388AF7"/>
<circle cx="374.5" cy="332.5" r="4.5" fill="#388AF7"/>
</g>
<defs>
<linearGradient id="paint0_linear" x1="1255.3" y1="107" x2="1255.3" y2="131.508" gradientUnits="userSpaceOnUse">
<stop stop-color="#388AF7"/>
<stop offset="1" stop-color="#E838F7"/>
</linearGradient>
<linearGradient id="paint1_linear" x1="1303.03" y1="107" x2="1303.03" y2="131.508" gradientUnits="userSpaceOnUse">
<stop stop-color="#388AF7"/>
<stop offset="1" stop-color="#E838F7"/>
</linearGradient>
<linearGradient id="paint2_linear" x1="1348.24" y1="107" x2="1348.24" y2="131.508" gradientUnits="userSpaceOnUse">
<stop stop-color="#388AF7"/>
<stop offset="1" stop-color="#E838F7"/>
</linearGradient>
<linearGradient id="paint3_linear" x1="1395.97" y1="107" x2="1395.97" y2="131.508" gradientUnits="userSpaceOnUse">
<stop stop-color="#388AF7"/>
<stop offset="1" stop-color="#E838F7"/>
</linearGradient>
<linearGradient id="paint4_linear" x1="1255.3" y1="158.738" x2="1255.3" y2="183.246" gradientUnits="userSpaceOnUse">
<stop stop-color="#388AF7"/>
<stop offset="1" stop-color="#E838F7"/>
</linearGradient>
<linearGradient id="paint5_linear" x1="1303.03" y1="158.739" x2="1303.03" y2="183.246" gradientUnits="userSpaceOnUse">
<stop stop-color="#388AF7"/>
<stop offset="1" stop-color="#E838F7"/>
</linearGradient>
<linearGradient id="paint6_linear" x1="1348.24" y1="158.739" x2="1348.24" y2="183.246" gradientUnits="userSpaceOnUse">
<stop stop-color="#388AF7"/>
<stop offset="1" stop-color="#E838F7"/>
</linearGradient>
<linearGradient id="paint7_linear" x1="1395.97" y1="158.739" x2="1395.97" y2="183.246" gradientUnits="userSpaceOnUse">
<stop stop-color="#388AF7"/>
<stop offset="1" stop-color="#E838F7"/>
</linearGradient>
<linearGradient id="paint8_linear" x1="1255.3" y1="207.754" x2="1255.3" y2="232.262" gradientUnits="userSpaceOnUse">
<stop stop-color="#388AF7"/>
<stop offset="1" stop-color="#E838F7"/>
</linearGradient>
<linearGradient id="paint9_linear" x1="1303.03" y1="207.754" x2="1303.03" y2="232.262" gradientUnits="userSpaceOnUse">
<stop stop-color="#388AF7"/>
<stop offset="1" stop-color="#E838F7"/>
</linearGradient>
<linearGradient id="paint10_linear" x1="1348.24" y1="207.754" x2="1348.24" y2="232.262" gradientUnits="userSpaceOnUse">
<stop stop-color="#388AF7"/>
<stop offset="1" stop-color="#E838F7"/>
</linearGradient>
<linearGradient id="paint11_linear" x1="1395.97" y1="207.754" x2="1395.97" y2="232.262" gradientUnits="userSpaceOnUse">
<stop stop-color="#388AF7"/>
<stop offset="1" stop-color="#E838F7"/>
</linearGradient>
<linearGradient id="paint12_linear" x1="1255.3" y1="259.492" x2="1255.3" y2="284" gradientUnits="userSpaceOnUse">
<stop stop-color="#388AF7"/>
<stop offset="1" stop-color="#E838F7"/>
</linearGradient>
<linearGradient id="paint13_linear" x1="1303.03" y1="259.492" x2="1303.03" y2="284" gradientUnits="userSpaceOnUse">
<stop stop-color="#388AF7"/>
<stop offset="1" stop-color="#E838F7"/>
</linearGradient>
<linearGradient id="paint14_linear" x1="1348.24" y1="259.492" x2="1348.24" y2="284" gradientUnits="userSpaceOnUse">
<stop stop-color="#388AF7"/>
<stop offset="1" stop-color="#E838F7"/>
</linearGradient>
<linearGradient id="paint15_linear" x1="1395.97" y1="259.492" x2="1395.97" y2="284" gradientUnits="userSpaceOnUse">
<stop stop-color="#388AF7"/>
<stop offset="1" stop-color="#E838F7"/>
</linearGradient>
<linearGradient id="paint16_linear" x1="1443.7" y1="107" x2="1443.7" y2="131.508" gradientUnits="userSpaceOnUse">
<stop stop-color="#388AF7"/>
<stop offset="1" stop-color="#E838F7"/>
</linearGradient>
<linearGradient id="paint17_linear" x1="1443.7" y1="158.739" x2="1443.7" y2="183.246" gradientUnits="userSpaceOnUse">
<stop stop-color="#388AF7"/>
<stop offset="1" stop-color="#E838F7"/>
</linearGradient>
<linearGradient id="paint18_linear" x1="1443.7" y1="207.754" x2="1443.7" y2="232.262" gradientUnits="userSpaceOnUse">
<stop stop-color="#388AF7"/>
<stop offset="1" stop-color="#E838F7"/>
</linearGradient>
<linearGradient id="paint19_linear" x1="1443.7" y1="259.492" x2="1443.7" y2="284" gradientUnits="userSpaceOnUse">
<stop stop-color="#388AF7"/>
<stop offset="1" stop-color="#E838F7"/>
</linearGradient>
</defs>
</svg>
