<svg xmlns="http://www.w3.org/2000/svg" width="1440" height="1024" fill="none" viewBox="0 0 1440 1024"><g clip-path="url(#clip0)"><rect width="1440" height="1024" fill="#fff"/><circle cx="85" cy="914" r="22" stroke="#8FACFF" stroke-width="10" opacity=".427"/><circle cx="1142.5" cy="463.5" r="46" stroke="#FF3E6C" stroke-width="23" opacity=".427"/><circle cx="1480" r="199" stroke="#8FACFF" stroke-width="50" opacity=".427"/><path fill="#fff" d="M166.908 667.738C166.908 672.147 165.575 675.463 162.909 677.685C160.255 679.895 156.301 681 151.049 681H141.427V677.787H144.879V658.458H141.427V655.246H151.22C156.495 655.246 160.425 656.243 163.012 658.236C165.609 660.23 166.908 663.397 166.908 667.738ZM162.67 667.909C162.67 665.722 162.283 663.939 161.508 662.56C160.744 661.181 159.525 660.156 157.851 659.484C156.187 658.8 153.988 658.458 151.254 658.458H148.776V677.787H151.22C155.185 677.787 158.084 676.995 159.918 675.412C161.753 673.817 162.67 671.316 162.67 667.909ZM190.227 672.917H175.171C175.387 674.637 176.054 675.998 177.17 677.001C178.287 677.992 179.654 678.488 181.272 678.488C182.457 678.488 183.556 678.243 184.57 677.753C185.584 677.263 186.433 676.511 187.116 675.497L190.227 676.898C189.247 678.425 187.96 679.582 186.365 680.368C184.781 681.142 183.055 681.53 181.186 681.53C179.249 681.53 177.529 681.125 176.025 680.316C174.521 679.507 173.348 678.38 172.505 676.933C171.673 675.486 171.257 673.856 171.257 672.045C171.257 670.245 171.667 668.621 172.488 667.174C173.319 665.727 174.453 664.599 175.888 663.791C177.324 662.97 178.908 662.56 180.639 662.56C182.531 662.56 184.177 662.982 185.578 663.825C186.991 664.656 188.102 665.853 188.911 667.414C189.72 668.963 190.158 670.797 190.227 672.917ZM180.708 665.5C179.375 665.5 178.207 665.95 177.204 666.85C176.202 667.738 175.558 668.917 175.273 670.387H186.518C186.188 668.917 185.487 667.738 184.416 666.85C183.345 665.95 182.109 665.5 180.708 665.5ZM202.95 677.855V681H193.499V677.855H196.678V658.356H193.499V655.246H200.215V677.855H202.95ZM212.767 656.989C212.767 657.57 212.557 658.071 212.135 658.493C211.714 658.914 211.212 659.125 210.631 659.125C210.05 659.125 209.555 658.914 209.144 658.493C208.734 658.071 208.529 657.57 208.529 656.989C208.529 656.408 208.734 655.906 209.144 655.485C209.555 655.063 210.05 654.853 210.631 654.853C211.235 654.853 211.742 655.058 212.152 655.468C212.562 655.878 212.767 656.385 212.767 656.989ZM215.297 677.855V681H206.222V677.855H209.025V666.2H206.222V663.039H212.562V677.855H215.297ZM224.021 666.2L227.9 676.386L231.762 666.2H229.267V663.039H237.88V666.2H235.146L229.421 681.308H226.225L220.38 666.2H217.202V663.039H226.362V666.2H224.021ZM260.02 672.917H244.964C245.18 674.637 245.847 675.998 246.963 677.001C248.08 677.992 249.447 678.488 251.065 678.488C252.25 678.488 253.349 678.243 254.363 677.753C255.377 677.263 256.226 676.511 256.91 675.497L260.02 676.898C259.04 678.425 257.753 679.582 256.158 680.368C254.574 681.142 252.848 681.53 250.979 681.53C249.043 681.53 247.322 681.125 245.818 680.316C244.314 679.507 243.141 678.38 242.298 676.933C241.466 675.486 241.05 673.856 241.05 672.045C241.05 670.245 241.46 668.621 242.281 667.174C243.112 665.727 244.246 664.599 245.682 663.791C247.117 662.97 248.701 662.56 250.432 662.56C252.324 662.56 253.97 662.982 255.371 663.825C256.784 664.656 257.895 665.853 258.704 667.414C259.513 668.963 259.952 670.797 260.02 672.917ZM250.501 665.5C249.168 665.5 248 665.95 246.997 666.85C245.995 667.738 245.351 668.917 245.066 670.387H256.311C255.981 668.917 255.28 667.738 254.209 666.85C253.138 665.95 251.902 665.5 250.501 665.5ZM270.504 673.788V677.855H274.418V681H263.395V677.855H267.001V666.2H263.395V663.039H269.803V667.106C270.521 665.5 271.41 664.383 272.469 663.756C273.54 663.118 275.067 662.799 277.049 662.799H277.853V666.371H277.084C275.17 666.371 273.745 666.622 272.811 667.123C271.877 667.624 271.256 668.382 270.948 669.396C270.652 670.41 270.504 671.874 270.504 673.788Z"/><rect width="158" height="158" x="516.084" y="921.084" stroke="#5F5FFF" stroke-width="50" opacity=".556" transform="rotate(30 516.084 921.084)"/><circle cx="74.5" cy="228.5" r="4.5" fill="#41485A" opacity=".111"/><circle cx="93.5" cy="228.5" r="4.5" fill="#41485A" opacity=".111"/><circle cx="111.5" cy="228.5" r="4.5" fill="#41485A" opacity=".111"/><circle cx="130.5" cy="228.5" r="4.5" fill="#41485A" opacity=".111"/><circle cx="74.5" cy="247.5" r="4.5" fill="#41485A" opacity=".111"/><circle cx="93.5" cy="247.5" r="4.5" fill="#41485A" opacity=".111"/><circle cx="111.5" cy="247.5" r="4.5" fill="#41485A" opacity=".111"/><circle cx="130.5" cy="247.5" r="4.5" fill="#41485A" opacity=".111"/><circle cx="74.5" cy="265.5" r="4.5" fill="#41485A" opacity=".111"/><circle cx="93.5" cy="265.5" r="4.5" fill="#41485A" opacity=".111"/><circle cx="111.5" cy="265.5" r="4.5" fill="#41485A" opacity=".111"/><circle cx="130.5" cy="265.5" r="4.5" fill="#41485A" opacity=".111"/><circle cx="74.5" cy="284.5" r="4.5" fill="#41485A" opacity=".111"/><circle cx="93.5" cy="284.5" r="4.5" fill="#41485A" opacity=".111"/><circle cx="111.5" cy="284.5" r="4.5" fill="#41485A" opacity=".111"/><circle cx="130.5" cy="284.5" r="4.5" fill="#41485A" opacity=".111"/><circle cx="149.5" cy="228.5" r="4.5" fill="#41485A" opacity=".111"/><circle cx="149.5" cy="247.5" r="4.5" fill="#41485A" opacity=".111"/><circle cx="149.5" cy="265.5" r="4.5" fill="#41485A" opacity=".111"/><circle cx="149.5" cy="284.5" r="4.5" fill="#41485A" opacity=".111"/><circle cx="172.5" cy="614.5" r="4.5" fill="#41485A" opacity=".111"/><circle cx="191.5" cy="614.5" r="4.5" fill="#41485A" opacity=".111"/><circle cx="209.5" cy="614.5" r="4.5" fill="#41485A" opacity=".111"/><circle cx="228.5" cy="614.5" r="4.5" fill="#41485A" opacity=".111"/><circle cx="172.5" cy="633.5" r="4.5" fill="#41485A" opacity=".111"/><circle cx="191.5" cy="633.5" r="4.5" fill="#41485A" opacity=".111"/><circle cx="209.5" cy="633.5" r="4.5" fill="#41485A" opacity=".111"/><circle cx="228.5" cy="633.5" r="4.5" fill="#41485A" opacity=".111"/><circle cx="172.5" cy="651.5" r="4.5" fill="#41485A" opacity=".111"/><circle cx="191.5" cy="651.5" r="4.5" fill="#41485A" opacity=".111"/><circle cx="209.5" cy="651.5" r="4.5" fill="#41485A" opacity=".111"/><circle cx="228.5" cy="651.5" r="4.5" fill="#41485A" opacity=".111"/><circle cx="172.5" cy="670.5" r="4.5" fill="#41485A" opacity=".111"/><circle cx="191.5" cy="670.5" r="4.5" fill="#41485A" opacity=".111"/><circle cx="209.5" cy="670.5" r="4.5" fill="#41485A" opacity=".111"/><circle cx="228.5" cy="670.5" r="4.5" fill="#41485A" opacity=".111"/><circle cx="247.5" cy="614.5" r="4.5" fill="#41485A" opacity=".111"/><circle cx="247.5" cy="633.5" r="4.5" fill="#41485A" opacity=".111"/><circle cx="247.5" cy="651.5" r="4.5" fill="#41485A" opacity=".111"/><circle cx="247.5" cy="670.5" r="4.5" fill="#41485A" opacity=".111"/></g><defs><clipPath id="clip0"><rect width="1440" height="1024" fill="#fff"/></clipPath></defs></svg>